<svg width="232" height="58" viewBox="0 0 232 58" fill="none" xmlns="http://www.w3.org/2000/svg">
<path d="M143.45 0.839844H0.0700684V57.1598H143.45V0.839844Z" fill="#8576FF"/>
<path d="M17.8501 41.5998H18.8701L28.9501 13.2198L28.5901 25.3998V52.1598H31.6501V5.83984H28.3501L18.3301 34.9998L8.37007 5.83984H5.07007V52.1598H8.19007V25.3998L7.77007 13.2198L17.8501 41.5998ZM43.1701 5.83984H39.9901V52.1598H43.1701V5.83984ZM72.5101 49.3998H54.5701V5.83984H51.5701V52.1598H72.5101V49.3998ZM99.0901 49.3998H81.1501V5.83984H78.1501V52.1598H99.0901V49.3998ZM107.91 5.83984H104.73V52.1598H107.91V5.83984ZM116.31 5.83984V52.1598H138.45V49.2198H119.31V28.8198H135.45V25.9998H119.31V8.59984H137.25V5.83984H116.31Z" fill="white"/>
<path d="M182.11 52.16L165.67 29.06L180.73 5.95996H171.07L158.95 25.4H156.73V5.95996H148.45V52.16H156.67V33.62H159.01L172.03 52.16H182.11ZM194.89 6.01996H186.55V52.22H194.89V6.01996ZM226.93 6.13996H199.57V13.52H209.17V52.16H217.39V13.52H226.93V6.13996Z" fill="#8576FF"/>
</svg>
